<mxfile host="app.diagrams.net" modified="2024-02-23T15:02:36.275Z" agent="Mozilla/5.0 (Windows NT 10.0; Win64; x64) AppleWebKit/537.36 (KHTML, like Gecko) Chrome/121.0.0.0 Safari/537.36" etag="58ubc7hX2pI-F7PB6eTt" version="23.1.6" type="github">
  <diagram name="Page-1" id="AGyL_qM2bVLv95G7SMTJ">
    <mxGraphModel dx="1714" dy="858" grid="1" gridSize="10" guides="1" tooltips="1" connect="1" arrows="1" fold="1" page="1" pageScale="1" pageWidth="827" pageHeight="1169" math="0" shadow="0">
      <root>
        <mxCell id="0" />
        <mxCell id="1" parent="0" />
        <mxCell id="uLj4doPHQDHr2DnKWbxj-17" style="edgeStyle=orthogonalEdgeStyle;rounded=0;orthogonalLoop=1;jettySize=auto;html=1;exitX=0.5;exitY=1;exitDx=0;exitDy=0;" edge="1" parent="1" source="uLj4doPHQDHr2DnKWbxj-1" target="uLj4doPHQDHr2DnKWbxj-18">
          <mxGeometry relative="1" as="geometry">
            <mxPoint x="159.63157894736855" y="200" as="targetPoint" />
          </mxGeometry>
        </mxCell>
        <mxCell id="uLj4doPHQDHr2DnKWbxj-1" value="Departamento" style="rounded=0;whiteSpace=wrap;html=1;" vertex="1" parent="1">
          <mxGeometry x="80" y="80" width="160" height="80" as="geometry" />
        </mxCell>
        <mxCell id="uLj4doPHQDHr2DnKWbxj-2" value="Empregado" style="rounded=0;whiteSpace=wrap;html=1;" vertex="1" parent="1">
          <mxGeometry x="560" y="80" width="160" height="80" as="geometry" />
        </mxCell>
        <mxCell id="uLj4doPHQDHr2DnKWbxj-3" value="Associado" style="rhombus;whiteSpace=wrap;html=1;" vertex="1" parent="1">
          <mxGeometry x="360" y="20" width="80" height="80" as="geometry" />
        </mxCell>
        <mxCell id="uLj4doPHQDHr2DnKWbxj-4" value="Gerência" style="rhombus;whiteSpace=wrap;html=1;" vertex="1" parent="1">
          <mxGeometry x="360" y="140" width="80" height="80" as="geometry" />
        </mxCell>
        <mxCell id="uLj4doPHQDHr2DnKWbxj-6" value="" style="endArrow=none;html=1;rounded=0;endFill=0;entryX=0;entryY=0.5;entryDx=0;entryDy=0;" edge="1" parent="1" target="uLj4doPHQDHr2DnKWbxj-3">
          <mxGeometry relative="1" as="geometry">
            <mxPoint x="240" y="119.57" as="sourcePoint" />
            <mxPoint x="340" y="119.57" as="targetPoint" />
          </mxGeometry>
        </mxCell>
        <mxCell id="uLj4doPHQDHr2DnKWbxj-8" value="1" style="edgeLabel;html=1;align=center;verticalAlign=middle;resizable=0;points=[];" vertex="1" connectable="0" parent="uLj4doPHQDHr2DnKWbxj-6">
          <mxGeometry x="0.0576" y="1" relative="1" as="geometry">
            <mxPoint as="offset" />
          </mxGeometry>
        </mxCell>
        <mxCell id="uLj4doPHQDHr2DnKWbxj-9" value="" style="endArrow=none;html=1;rounded=0;endFill=0;entryX=0;entryY=0.5;entryDx=0;entryDy=0;exitX=1;exitY=0.5;exitDx=0;exitDy=0;" edge="1" parent="1" source="uLj4doPHQDHr2DnKWbxj-3" target="uLj4doPHQDHr2DnKWbxj-2">
          <mxGeometry relative="1" as="geometry">
            <mxPoint x="440" y="39.56999999999999" as="sourcePoint" />
            <mxPoint x="560" y="-40" as="targetPoint" />
          </mxGeometry>
        </mxCell>
        <mxCell id="uLj4doPHQDHr2DnKWbxj-10" value="N" style="edgeLabel;html=1;align=center;verticalAlign=middle;resizable=0;points=[];" vertex="1" connectable="0" parent="uLj4doPHQDHr2DnKWbxj-9">
          <mxGeometry x="0.0576" y="1" relative="1" as="geometry">
            <mxPoint as="offset" />
          </mxGeometry>
        </mxCell>
        <mxCell id="uLj4doPHQDHr2DnKWbxj-11" value="" style="endArrow=none;html=1;rounded=0;endFill=0;entryX=0;entryY=0.5;entryDx=0;entryDy=0;" edge="1" parent="1" target="uLj4doPHQDHr2DnKWbxj-4">
          <mxGeometry relative="1" as="geometry">
            <mxPoint x="240" y="120" as="sourcePoint" />
            <mxPoint x="360" y="100" as="targetPoint" />
          </mxGeometry>
        </mxCell>
        <mxCell id="uLj4doPHQDHr2DnKWbxj-12" value="1" style="edgeLabel;html=1;align=center;verticalAlign=middle;resizable=0;points=[];" vertex="1" connectable="0" parent="uLj4doPHQDHr2DnKWbxj-11">
          <mxGeometry x="0.0576" y="1" relative="1" as="geometry">
            <mxPoint as="offset" />
          </mxGeometry>
        </mxCell>
        <mxCell id="uLj4doPHQDHr2DnKWbxj-13" value="" style="endArrow=none;html=1;rounded=0;endFill=0;entryX=0;entryY=0.5;entryDx=0;entryDy=0;" edge="1" parent="1">
          <mxGeometry relative="1" as="geometry">
            <mxPoint x="440" y="179.57" as="sourcePoint" />
            <mxPoint x="560" y="120" as="targetPoint" />
          </mxGeometry>
        </mxCell>
        <mxCell id="uLj4doPHQDHr2DnKWbxj-14" value="1" style="edgeLabel;html=1;align=center;verticalAlign=middle;resizable=0;points=[];" vertex="1" connectable="0" parent="uLj4doPHQDHr2DnKWbxj-13">
          <mxGeometry x="0.0576" y="1" relative="1" as="geometry">
            <mxPoint as="offset" />
          </mxGeometry>
        </mxCell>
        <mxCell id="uLj4doPHQDHr2DnKWbxj-15" value="Data de início da gerência" style="ellipse;whiteSpace=wrap;html=1;" vertex="1" parent="1">
          <mxGeometry x="320" y="220" width="160" height="60" as="geometry" />
        </mxCell>
        <mxCell id="uLj4doPHQDHr2DnKWbxj-18" value="Nome" style="ellipse;whiteSpace=wrap;html=1;" vertex="1" parent="1">
          <mxGeometry x="100.00157894736856" y="240" width="120" height="80" as="geometry" />
        </mxCell>
        <mxCell id="uLj4doPHQDHr2DnKWbxj-19" value="&lt;u&gt;Número&lt;/u&gt;" style="ellipse;whiteSpace=wrap;html=1;" vertex="1" parent="1">
          <mxGeometry x="100.00157894736856" y="320" width="120" height="80" as="geometry" />
        </mxCell>
        <mxCell id="uLj4doPHQDHr2DnKWbxj-20" value="Localização" style="ellipse;whiteSpace=wrap;html=1;" vertex="1" parent="1">
          <mxGeometry x="100.00157894736856" y="400" width="120" height="80" as="geometry" />
        </mxCell>
        <mxCell id="uLj4doPHQDHr2DnKWbxj-21" value="" style="ellipse;whiteSpace=wrap;html=1;fillColor=none;" vertex="1" parent="1">
          <mxGeometry x="105" y="405" width="110" height="70" as="geometry" />
        </mxCell>
        <mxCell id="uLj4doPHQDHr2DnKWbxj-22" value="Nome" style="ellipse;whiteSpace=wrap;html=1;" vertex="1" parent="1">
          <mxGeometry x="580.0015789473686" y="240" width="120" height="80" as="geometry" />
        </mxCell>
        <mxCell id="uLj4doPHQDHr2DnKWbxj-23" value="&lt;u&gt;CPF&lt;/u&gt;" style="ellipse;whiteSpace=wrap;html=1;" vertex="1" parent="1">
          <mxGeometry x="580.0015789473686" y="320" width="120" height="80" as="geometry" />
        </mxCell>
        <mxCell id="uLj4doPHQDHr2DnKWbxj-24" style="edgeStyle=orthogonalEdgeStyle;rounded=0;orthogonalLoop=1;jettySize=auto;html=1;exitX=0.5;exitY=1;exitDx=0;exitDy=0;" edge="1" parent="1">
          <mxGeometry relative="1" as="geometry">
            <mxPoint x="639.29" y="240" as="targetPoint" />
            <mxPoint x="639.29" y="160" as="sourcePoint" />
          </mxGeometry>
        </mxCell>
        <mxCell id="uLj4doPHQDHr2DnKWbxj-25" value="Data de nascimento" style="ellipse;whiteSpace=wrap;html=1;" vertex="1" parent="1">
          <mxGeometry x="580.0015789473686" y="640" width="120" height="80" as="geometry" />
        </mxCell>
        <mxCell id="uLj4doPHQDHr2DnKWbxj-26" value="Sexo" style="ellipse;whiteSpace=wrap;html=1;" vertex="1" parent="1">
          <mxGeometry x="580.0015789473686" y="560" width="120" height="80" as="geometry" />
        </mxCell>
        <mxCell id="uLj4doPHQDHr2DnKWbxj-27" value="Endereço" style="ellipse;whiteSpace=wrap;html=1;" vertex="1" parent="1">
          <mxGeometry x="580.0015789473686" y="400" width="120" height="80" as="geometry" />
        </mxCell>
        <mxCell id="uLj4doPHQDHr2DnKWbxj-28" value="Salário" style="ellipse;whiteSpace=wrap;html=1;" vertex="1" parent="1">
          <mxGeometry x="580.0015789473686" y="480" width="120" height="80" as="geometry" />
        </mxCell>
      </root>
    </mxGraphModel>
  </diagram>
</mxfile>
